<svg width="350" height="125" viewBox="0 0 350 125" fill="none" xmlns="http://www.w3.org/2000/svg">
<path d="M31.0476 31.1908C30.381 17.8574 36.4476 -6.40923 66.0476 3.19077C68.2143 14.5241 64.2477 35.9908 31.0476 31.1908Z" fill="#ABFE2C" stroke="#ABFE2C" stroke-width="2" stroke-linecap="round"/>
<path d="M29.4411 31.1908C30.1078 17.8574 24.0411 -6.40923 -5.55886 3.19077M29.4411 31.1908C24.0968 32.6812 17.7897 33.1406 11.9888 31.9456M29.4411 31.1908L23.9888 26.8289M-5.55886 3.19077L-0.285048 7.40982M-5.55886 3.19077C-5.76651 4.66178 -5.89838 6.0674 -5.95963 7.40982M11.9888 31.9456C8.30083 31.1858 4.81741 29.7574 1.91591 27.5M11.9888 31.9456L23.9888 26.8289M20.4527 24L1.91591 27.5M20.4527 24L14.9888 19.6289M20.4527 24L23.9888 26.8289M1.91591 27.5C0.172996 26.144 -1.35994 24.4889 -2.60112 22.5M14.9888 19.6289L-2.60112 22.5M14.9888 19.6289L9.98877 15.6289M-2.60112 22.5C-3.52324 21.0223 -4.28431 19.3604 -4.8508 17.5M9.98877 15.6289L-4.8508 17.5M9.98877 15.6289L4.98877 11.6289M-4.8508 17.5C-5.31662 15.9702 -5.65087 14.3062 -5.83489 12.5M4.98877 11.6289L-5.83489 12.5M4.98877 11.6289L-0.285048 7.40982M-5.83489 12.5C-5.99642 10.9146 -6.0422 9.21964 -5.95963 7.40982M-0.285048 7.40982H-5.95963" stroke="#D9D9D9" stroke-width="2" stroke-linecap="round"/>
<path d="M31 32L28 485" stroke="#D9D9D9" stroke-width="2" stroke-linecap="round"/>
<path d="M57.2622 82C57.2622 84.9124 54.9012 87.2734 51.9888 87.2734C49.0763 87.2734 46.7154 84.9124 46.7154 82C46.7154 79.0876 49.0763 76.7266 51.9888 76.7266C54.9012 76.7266 57.2622 79.0876 57.2622 82ZM51.9888 177.349L51.0007 177.387L51 177.368L51 177.349L51.9888 177.349ZM-18 192.989C-18.5461 192.989 -18.9888 192.546 -18.9888 192C-18.9888 191.454 -18.5461 191.011 -18 191.011L-18 192.989ZM52.9775 82L52.9775 177.349L51 177.349L51 82L52.9775 82ZM52.9768 177.311C53.0888 180.214 52.4239 184.074 50.5396 187.244C48.6291 190.458 45.4357 192.989 40.6027 192.989L40.6027 191.011C44.6078 191.011 47.2136 188.969 48.8397 186.233C50.492 183.453 51.1011 179.988 51.0007 177.387L52.9768 177.311ZM40.6027 192.989L-18 192.989L-18 191.011L40.6027 191.011L40.6027 192.989Z" fill="#ABFE2C"/>
<path d="M349.265 57C349.265 59.9124 346.904 62.2734 343.992 62.2734C341.079 62.2734 338.718 59.9124 338.718 57C338.718 54.0876 341.079 51.7266 343.992 51.7266C346.904 51.7266 349.265 54.0876 349.265 57ZM343.992 148.015L343.003 148.044L343.003 148.03L343.003 148.015L343.992 148.015ZM292 162.989C291.454 162.989 291.011 162.546 291.011 162C291.011 161.454 291.454 161.011 292 161.011L292 162.989ZM344.98 57L344.98 148.015L343.003 148.015L343.003 57L344.98 57ZM344.98 147.985C345.062 150.725 344.574 154.381 343.181 157.393C341.785 160.41 339.36 162.989 335.533 162.989L335.533 161.011C338.272 161.011 340.155 159.224 341.386 156.562C342.62 153.895 343.079 150.559 343.003 148.044L344.98 147.985ZM335.533 162.989L292 162.989L292 161.011L335.533 161.011L335.533 162.989Z" fill="#ABFE2C"/>
</svg>
