<svg width="350" height="125" viewBox="0 0 350 125" fill="none" xmlns="http://www.w3.org/2000/svg">
<path d="M31.0475 31.1908C30.3809 17.8574 36.4475 -6.40923 66.0475 3.19077C68.2142 14.5241 64.2476 35.9908 31.0475 31.1908Z" fill="#ABFE2C" stroke="#ABFE2C" stroke-width="2" stroke-linecap="round"/>
<path d="M29.441 31.1908C30.1077 17.8574 24.041 -6.40923 -5.55896 3.19077M29.441 31.1908C24.0967 32.6812 17.7897 33.1406 11.9887 31.9456M29.441 31.1908L23.9887 26.8289M-5.55896 3.19077L-0.285139 7.40982M-5.55896 3.19077C-5.7666 4.66178 -5.89847 6.0674 -5.95972 7.40982M11.9887 31.9456C8.30074 31.1858 4.81732 29.7574 1.91582 27.5M11.9887 31.9456L23.9887 26.8289M20.4526 24L1.91582 27.5M20.4526 24L14.9887 19.6289M20.4526 24L23.9887 26.8289M1.91582 27.5C0.172905 26.144 -1.36003 24.4889 -2.60121 22.5M14.9887 19.6289L-2.60121 22.5M14.9887 19.6289L9.98868 15.6289M-2.60121 22.5C-3.52333 21.0223 -4.28441 19.3604 -4.85089 17.5M9.98868 15.6289L-4.85089 17.5M9.98868 15.6289L4.98868 11.6289M-4.85089 17.5C-5.31671 15.9702 -5.65096 14.3062 -5.83498 12.5M4.98868 11.6289L-5.83498 12.5M4.98868 11.6289L-0.285139 7.40982M-5.83498 12.5C-5.99651 10.9146 -6.0423 9.21964 -5.95972 7.40982M-0.285139 7.40982H-5.95972" stroke="#D9D9D9" stroke-width="2" stroke-linecap="round"/>
<path d="M31 32L28 485" stroke="#D9D9D9" stroke-width="2" stroke-linecap="round"/>
<path d="M57.2622 82C57.2622 84.9124 54.9012 87.2734 51.9888 87.2734C49.0763 87.2734 46.7154 84.9124 46.7154 82C46.7154 79.0876 49.0763 76.7266 51.9888 76.7266C54.9012 76.7266 57.2622 79.0876 57.2622 82ZM51.9888 177.349L51.0007 177.387L51 177.368L51 177.349L51.9888 177.349ZM-18 192.989C-18.5461 192.989 -18.9888 192.546 -18.9888 192C-18.9888 191.454 -18.5461 191.011 -18 191.011L-18 192.989ZM52.9775 82L52.9775 177.349L51 177.349L51 82L52.9775 82ZM52.9768 177.311C53.0888 180.214 52.4239 184.074 50.5396 187.244C48.6291 190.458 45.4357 192.989 40.6027 192.989L40.6027 191.011C44.6078 191.011 47.2136 188.969 48.8397 186.233C50.492 183.453 51.1011 179.988 51.0007 177.387L52.9768 177.311ZM40.6027 192.989L-18 192.989L-18 191.011L40.6027 191.011L40.6027 192.989Z" fill="#ABFE2C"/>
<path d="M349.265 57C349.265 59.9124 346.904 62.2734 343.992 62.2734C341.079 62.2734 338.718 59.9124 338.718 57C338.718 54.0876 341.079 51.7266 343.992 51.7266C346.904 51.7266 349.265 54.0876 349.265 57ZM343.992 148.015L343.003 148.044L343.003 148.03L343.003 148.015L343.992 148.015ZM292 162.989C291.454 162.989 291.011 162.546 291.011 162C291.011 161.454 291.454 161.011 292 161.011L292 162.989ZM344.98 57L344.98 148.015L343.003 148.015L343.003 57L344.98 57ZM344.98 147.985C345.062 150.725 344.574 154.381 343.181 157.393C341.785 160.41 339.36 162.989 335.533 162.989L335.533 161.011C338.272 161.011 340.155 159.224 341.386 156.562C342.62 153.895 343.079 150.559 343.003 148.044L344.98 147.985ZM335.533 162.989L292 162.989L292 161.011L335.533 161.011L335.533 162.989Z" fill="#ABFE2C"/>
</svg>
