<svg width="117" height="36" viewBox="0 0 117 36" fill="none" xmlns="http://www.w3.org/2000/svg">
<path d="M111 35.2667C108.088 35.2667 105.727 32.9057 105.727 29.9933C105.727 27.0808 108.088 24.7198 111 24.7198C113.912 24.7198 116.273 27.0808 116.273 29.9933C116.273 32.9057 113.912 35.2667 111 35.2667ZM15.6512 29.9933L15.6283 29.0048L15.6397 29.0045H15.6512V29.9933ZM0.0112305 -12C0.0112305 -12.5461 0.453918 -12.9888 1 -12.9888C1.54607 -12.9888 1.98876 -12.5461 1.98876 -12H0.0112305ZM111 30.982L15.6512 30.982V29.0045L111 29.0045V30.982ZM15.674 30.9818C12.8379 31.0474 9.04818 30.6574 5.92947 29.5451C2.89708 28.4636 0.0112305 26.5008 0.0112305 23.1616H1.98876C1.98876 25.1253 3.67656 26.642 6.59377 27.6825C9.42467 28.6921 12.9605 29.0665 15.6283 29.0048L15.674 30.9818ZM0.0112305 23.1616V-12H1.98876V23.1616H0.0112305Z" fill="#ABFE2C"/>
</svg>
