<svg width="375" height="513" viewBox="0 0 375 513" fill="none" xmlns="http://www.w3.org/2000/svg">
<path d="M101.303 444.341C98.3908 444.341 96.0298 441.98 96.0298 439.068C96.0298 436.156 98.3908 433.795 101.303 433.795C104.216 433.795 106.577 436.156 106.577 439.068C106.577 441.98 104.216 444.341 101.303 444.341ZM41.9512 439.068L41.8957 438.081L41.9235 438.079H41.9512V439.068ZM31.8426 375.55C31.8426 375.004 32.2852 374.561 32.8313 374.561C33.3774 374.561 33.8201 375.004 33.8201 375.55H31.8426ZM101.303 440.057H41.9512V438.079H101.303V440.057ZM42.0068 440.055C40.0545 440.165 37.5177 439.513 35.459 437.729C33.3684 435.917 31.8426 433.001 31.8426 428.735H33.8201C33.8201 432.489 35.1412 434.836 36.7541 436.234C38.3988 437.66 40.422 438.164 41.8957 438.081L42.0068 440.055ZM31.8426 428.735V375.55H33.8201V428.735H31.8426Z" fill="#FAAAAA"/>
<path d="M101 493.263C98.0876 493.263 95.7266 490.902 95.7266 487.99C95.7266 485.077 98.0876 482.716 101 482.716C103.912 482.716 106.273 485.077 106.273 487.99C106.273 490.902 103.912 493.263 101 493.263ZM5.65115 487.99L5.6163 487.002L5.63372 487.001H5.65115V487.99ZM-9.98877 424C-9.98877 423.454 -9.54608 423.011 -9 423.011C-8.45393 423.011 -8.01124 423.454 -8.01124 424H-9.98877ZM101 488.978H5.65115V487.001H101V488.978ZM5.686 488.978C2.7983 489.08 -1.04806 488.475 -4.21053 486.756C-7.40891 485.018 -9.98877 482.079 -9.98877 477.58H-8.01124C-8.01124 481.161 -6.01746 483.524 -3.26624 485.019C-0.479088 486.534 3.00013 487.094 5.6163 487.002L5.686 488.978ZM-9.98877 477.58V424H-8.01124V477.58H-9.98877Z" fill="#FFBFBC"/>
<path d="M299 339.242C301.912 339.242 304.273 336.881 304.273 333.969C304.273 331.056 301.912 328.695 299 328.695C296.088 328.695 293.727 331.056 293.727 333.969C293.727 336.881 296.088 339.242 299 339.242ZM345.989 -33.001C345.989 -33.5471 345.546 -33.9897 345 -33.9897C344.454 -33.9897 344.011 -33.5471 344.011 -33.001H345.989ZM299 334.958H338.873V332.98H299V334.958ZM338.873 334.958C340.922 334.958 342.585 334.491 343.779 333.179C344.927 331.919 345.483 330.043 345.778 327.632C346.076 325.198 346.125 322.025 346.104 318.008C346.082 313.962 345.989 309.064 345.989 303.064H344.011C344.011 309.058 344.105 314.02 344.126 318.018C344.148 322.045 344.096 325.099 343.815 327.392C343.532 329.709 343.033 331.061 342.317 331.848C341.648 332.582 340.638 332.98 338.873 332.98V334.958ZM345.989 303.064V-33.001H344.011V303.064H345.989Z" fill="#FF8A9F"/>
<path d="M101.303 336.493C101.303 324.206 111.264 314.246 123.55 314.246H200.18V390.875C200.18 403.162 190.219 413.122 177.932 413.122H101.303V336.493Z" fill="#FAAAAA"/>
<path d="M200.18 435.372C200.18 423.085 210.14 413.125 222.427 413.125H299.056V489.754C299.056 502.041 289.096 512.001 276.809 512.001H200.18V435.372Z" fill="#FF8A9F"/>
<path d="M154.918 361.442L154.918 361.443L154.927 361.434L199.685 315.463V390.875C199.685 402.889 189.946 412.628 177.932 412.628H102.517L154.918 361.442Z" fill="#DB7685" stroke="#DBDBDB" stroke-width="0.988764"/>
<path d="M200.18 378.519C200.18 370.328 206.82 363.688 215.011 363.688H249.618V398.294C249.618 406.485 242.978 413.126 234.786 413.126H200.18V378.519Z" fill="#FAAAAA"/>
<path d="M249.618 329.078C249.618 320.886 256.258 314.246 264.449 314.246H299.056V348.853C299.056 357.044 292.416 363.684 284.224 363.684H249.618V329.078Z" fill="#FF8A9F"/>
<path d="M101.303 427.956C101.303 419.765 107.943 413.125 116.135 413.125H200.18V447.732C200.18 455.923 193.539 462.563 185.348 462.563H101.303V427.956Z" fill="#FAAAAA"/>
<circle cx="224.899" cy="338.965" r="24.7191" fill="#FFBFBC"/>
<circle cx="126.022" cy="487.282" r="24.7191" fill="#FFBFBC"/>
<circle cx="274.337" cy="388.407" r="23.7191" stroke="#FAAAAA" stroke-width="2"/>
<circle cx="175.46" cy="487.719" r="23.7191" stroke="#FAAAAA" stroke-width="2"/>
<path d="M-26 318.854C-25.2321 334.201 -18.5003 348.64 -7.24096 359.09C4.01839 369.54 18.9137 375.174 34.2668 374.79C49.6199 374.406 64.2151 368.034 74.9381 357.033C85.6611 346.033 91.6629 331.275 91.6629 315.909C91.6629 300.543 85.6611 285.785 74.9381 274.785C64.2151 263.784 49.6199 257.412 34.2668 257.028C18.9137 256.643 4.01839 262.278 -7.24096 272.728C-18.5003 283.178 -25.2321 297.617 -26 312.964C-25.2321 328.311 -18.5003 342.75 -7.24096 353.2C4.01839 363.65 18.9137 369.284 34.2668 368.9C49.6199 368.516 64.2151 362.144 74.9381 351.143C85.6611 340.143 91.6629 325.385 91.6629 310.019C91.6629 294.653 85.6611 279.895 74.9381 268.895C64.2151 257.894 49.6199 251.522 34.2668 251.138C18.9137 250.753 4.01839 256.388 -7.24096 266.838C-18.5003 277.288 -25.2321 291.727 -26 307.074C-25.2321 322.421 -18.5003 336.86 -7.24096 347.31C4.01839 357.76 18.9137 363.394 34.2668 363.01C49.6199 362.626 64.2151 356.254 74.9381 345.253C85.6611 334.253 91.6629 319.495 91.6629 304.129C91.6629 288.763 85.6611 274.005 74.9381 263.005C64.2151 252.004 49.6199 245.632 34.2668 245.248C18.9137 244.864 4.01839 250.498 -7.24096 260.948C-18.5003 271.398 -25.2321 285.837 -26 301.184C-25.2321 316.531 -18.5003 330.97 -7.24096 341.42C4.01839 351.87 18.9137 357.505 34.2668 357.12C49.6199 356.736 64.2151 350.364 74.9381 339.363C85.6611 328.363 91.6629 313.605 91.6629 298.239C91.6629 282.873 85.6611 268.115 74.9381 257.115C64.2151 246.114 49.6199 239.742 34.2668 239.358C18.9137 238.974 4.01839 244.608 -7.24096 255.058C-18.5003 265.508 -25.2321 279.947 -26 295.294C-25.2321 310.641 -18.5003 325.08 -7.24096 335.53C4.01839 345.98 18.9137 351.615 34.2668 351.23C49.6199 350.846 64.2151 344.474 74.9381 333.473C85.6611 322.473 91.6629 307.715 91.6629 292.349C91.6629 276.983 85.6611 262.225 74.9381 251.225C64.2151 240.224 49.6199 233.852 34.2668 233.468C18.9137 233.084 4.01839 238.718 -7.24096 249.168C-18.5003 259.618 -25.2321 274.057 -26 289.404C-25.2321 304.751 -18.5003 319.19 -7.24096 329.64C4.01839 340.091 18.9137 345.725 34.2668 345.34C49.6199 344.956 64.2151 338.584 74.9381 327.583C85.6611 316.583 91.6629 301.825 91.6629 286.459C91.6629 271.093 85.6611 256.335 74.9381 245.335C64.2151 234.334 49.6199 227.962 34.2668 227.578C18.9137 227.194 4.01839 232.828 -7.24096 243.278C-18.5003 253.728 -25.2321 268.167 -26 283.514C-25.2321 298.861 -18.5003 313.3 -7.24096 323.75C4.01839 334.201 18.9137 339.835 34.2668 339.45C49.6199 339.066 64.2151 332.694 74.9381 321.693C85.6611 310.693 91.6629 295.935 91.6629 280.569C91.6629 265.203 85.6611 250.445 74.9381 239.445C64.2151 228.444 49.6199 222.072 34.2668 221.688C18.9137 221.304 4.01839 226.938 -7.24096 237.388C-18.5003 247.838 -25.2321 262.277 -26 277.624C-25.2321 292.971 -18.5003 307.41 -7.24096 317.86C4.01839 328.311 18.9137 333.945 34.2668 333.56C49.6199 333.176 64.2151 326.804 74.9381 315.803C85.6611 304.803 91.6629 290.045 91.6629 274.679C91.6629 259.313 85.6611 244.555 74.9381 233.555C64.2151 222.554 49.6199 216.182 34.2668 215.798C18.9137 215.414 4.01839 221.048 -7.24096 231.498C-18.5003 241.948 -25.2321 256.387 -26 271.734C-25.2321 287.081 -18.5003 301.52 -7.24096 311.97C4.01839 322.421 18.9137 328.055 34.2668 327.67C49.6199 327.286 64.2151 320.914 74.9381 309.913C85.6611 298.913 91.6629 284.155 91.6629 268.789C91.6629 253.423 85.6611 238.665 74.9381 227.665C64.2151 216.664 49.6199 210.292 34.2668 209.908C18.9137 209.524 4.01839 215.158 -7.24096 225.608C-18.5003 236.058 -25.2321 250.497 -26 265.844C-25.2321 281.191 -18.5003 295.63 -7.24096 306.08C4.01839 316.531 18.9137 322.165 34.2668 321.78C49.6199 321.396 64.2151 315.024 74.9381 304.024C85.6611 293.023 91.6629 278.265 91.6629 262.899C91.6629 247.533 85.6611 232.775 74.9381 221.775C64.2151 210.775 49.6199 204.402 34.2668 204.018C18.9137 203.634 4.01839 209.268 -7.24096 219.718C-18.5003 230.168 -25.2321 244.607 -26 259.954" stroke="#FAAAAA" stroke-width="0.988764"/>
<path d="M342.888 463.154C342.888 455.732 348.905 449.715 356.327 449.715H369.767V463.154C369.767 470.576 363.75 476.593 356.327 476.593H342.888V463.154Z" fill="#FF8A9F"/>
<path d="M167.664 262.205C167.664 254.783 173.68 248.766 181.103 248.766H194.542V262.205C194.542 269.627 188.525 275.644 181.103 275.644H167.664V262.205Z" fill="#FF8A9F"/>
<path d="M331.742 443.456C326.493 438.208 326.493 429.699 331.742 424.45L341.245 414.947L350.748 424.45C355.996 429.699 355.996 438.208 350.748 443.456L341.245 452.959L331.742 443.456Z" fill="#FF8A9F"/>
<path d="M338.414 495.907C338.414 491.2 337.529 479.812 322.319 479.812H306.225V495.907C306.225 504.796 313.431 512.002 322.319 512.002H338.414V495.907Z" fill="#FF8A9F"/>
<path d="M163.19 294.958C163.19 290.25 162.304 278.863 147.095 278.863H131V294.958C131 303.847 138.206 311.053 147.095 311.053H163.19V294.958Z" fill="#FF8A9F"/>
<path d="M343.001 495.907C343.001 491.2 343.887 479.812 359.096 479.812H375.191V495.907C375.191 504.796 367.985 512.002 359.096 512.002H343.001V495.907Z" fill="#FF8A9F"/>
<path d="M167.777 294.958C167.777 290.25 168.662 278.863 183.871 278.863H199.966V294.958C199.966 303.847 192.76 311.053 183.871 311.053H167.777V294.958Z" fill="#FF8A9F"/>
<path d="M339.058 463.154C339.058 455.732 333.041 449.715 325.619 449.715H312.18V463.154C312.18 470.576 318.197 476.593 325.619 476.593H339.058V463.154Z" fill="#FF8A9F"/>
<path d="M163.833 262.205C163.833 254.783 157.816 248.766 150.394 248.766H136.955V262.205C136.955 269.627 142.972 275.644 150.394 275.644H163.833V262.205Z" fill="#FF8A9F"/>
<mask id="mask0_361_2333" style="mask-type:alpha" maskUnits="userSpaceOnUse" x="101" y="314" width="100" height="100">
<path d="M154.918 361.442L154.918 361.443L154.927 361.434L199.685 315.463V390.875C199.685 402.889 189.946 412.628 177.932 412.628H102.517L154.918 361.442Z" fill="#05278E" stroke="#FCFCFC" stroke-width="0.988764"/>
</mask>
<g mask="url(#mask0_361_2333)">
<path d="M148.888 382.847C147.453 381.413 147.453 379.087 148.888 377.653L151.485 375.055L154.083 377.653C155.517 379.087 155.517 381.413 154.083 382.847L151.485 385.445L148.888 382.847Z" fill="white"/>
<path d="M154.078 392.363C152.643 390.929 152.643 388.603 154.078 387.168L156.675 384.571L159.273 387.168C160.707 388.603 160.707 390.929 159.273 392.363L156.675 394.96L154.078 392.363Z" fill="white"/>
<path d="M143.698 392.363C142.263 390.929 142.263 388.603 143.698 387.168L146.295 384.571L148.893 387.168C150.327 388.603 150.327 390.929 148.893 392.363L146.295 394.96L143.698 392.363Z" fill="white"/>
<path d="M148.888 402.07C147.453 400.636 147.453 398.31 148.888 396.875L151.485 394.278L154.083 396.875C155.517 398.31 155.517 400.636 154.083 402.07L151.485 404.667L148.888 402.07Z" fill="white"/>
<path d="M159.268 382.847C157.834 381.413 157.834 379.087 159.268 377.653L161.866 375.055L164.463 377.653C165.898 379.087 165.898 381.413 164.463 382.847L161.866 385.445L159.268 382.847Z" fill="white"/>
<path d="M164.458 392.363C163.024 390.929 163.024 388.603 164.458 387.168L167.056 384.571L169.653 387.168C171.088 388.603 171.088 390.929 169.653 392.363L167.056 394.96L164.458 392.363Z" fill="white"/>
<path d="M159.268 402.07C157.834 400.636 157.834 398.31 159.268 396.875L161.866 394.278L164.463 396.875C165.898 398.31 165.898 400.636 164.463 402.07L161.866 404.667L159.268 402.07Z" fill="white"/>
<path d="M169.648 382.847C168.214 381.413 168.214 379.087 169.648 377.653L172.246 375.055L174.843 377.653C176.278 379.087 176.278 381.413 174.843 382.847L172.246 385.445L169.648 382.847Z" fill="white"/>
<path d="M174.838 392.363C173.404 390.929 173.404 388.603 174.838 387.168L177.436 384.571L180.033 387.168C181.467 388.603 181.467 390.929 180.033 392.363L177.436 394.96L174.838 392.363Z" fill="white"/>
<path d="M169.648 402.07C168.214 400.636 168.214 398.31 169.648 396.875L172.246 394.278L174.843 396.875C176.278 398.31 176.278 400.636 174.843 402.07L172.246 404.667L169.648 402.07Z" fill="white"/>
<path d="M180.029 382.847C178.594 381.413 178.594 379.087 180.029 377.653L182.626 375.055L185.223 377.653C186.658 379.087 186.658 381.413 185.223 382.847L182.626 385.445L180.029 382.847Z" fill="white"/>
<path d="M185.219 392.363C183.784 390.929 183.784 388.603 185.219 387.168L187.816 384.571L190.413 387.168C191.848 388.603 191.848 390.929 190.413 392.363L187.816 394.96L185.219 392.363Z" fill="white"/>
<path d="M180.029 402.07C178.594 400.636 178.594 398.31 180.029 396.875L182.626 394.278L185.223 396.875C186.658 398.31 186.658 400.636 185.223 402.07L182.626 404.667L180.029 402.07Z" fill="white"/>
<path d="M190.416 402.129C188.982 400.694 188.982 398.368 190.416 396.934L193.014 394.336L195.611 396.934C197.046 398.368 197.046 400.694 195.611 402.129L193.014 404.726L190.416 402.129Z" fill="white"/>
<path d="M195.607 411.644C194.172 410.21 194.172 407.884 195.607 406.449L198.204 403.852L200.802 406.449C202.236 407.884 202.236 410.21 200.802 411.644L198.204 414.242L195.607 411.644Z" fill="white"/>
<path d="M185.226 411.644C183.792 410.21 183.792 407.884 185.226 406.449L187.824 403.852L190.421 406.449C191.856 407.884 191.856 410.21 190.421 411.644L187.824 414.242L185.226 411.644Z" fill="white"/>
<path d="M200.797 402.129C199.362 400.694 199.362 398.368 200.797 396.934L203.394 394.336L205.991 396.934C207.426 398.368 207.426 400.694 205.991 402.129L203.394 404.726L200.797 402.129Z" fill="white"/>
<path d="M143.697 412.511C142.263 411.077 142.263 408.751 143.697 407.317L146.294 404.719L148.892 407.317C150.326 408.751 150.326 411.077 148.892 412.511L146.294 415.109L143.697 412.511Z" fill="white"/>
<path d="M154.077 412.511C152.643 411.077 152.643 408.751 154.077 407.317L156.675 404.719L159.272 407.317C160.707 408.751 160.707 411.077 159.272 412.511L156.675 415.109L154.077 412.511Z" fill="white"/>
<path d="M164.457 412.511C163.023 411.077 163.023 408.751 164.457 407.317L167.055 404.719L169.652 407.317C171.087 408.751 171.087 411.077 169.652 412.511L167.055 415.109L164.457 412.511Z" fill="white"/>
<path d="M174.838 412.511C173.403 411.077 173.403 408.751 174.838 407.317L177.435 404.719L180.032 407.317C181.467 408.751 181.467 411.077 180.032 412.511L177.435 415.109L174.838 412.511Z" fill="white"/>
<path d="M101.922 392.488C100.487 391.054 100.487 388.728 101.922 387.293L104.519 384.696L107.116 387.293C108.551 388.728 108.551 391.054 107.116 392.488L104.519 395.085L101.922 392.488Z" fill="white"/>
<path d="M107.112 402.004C105.677 400.569 105.677 398.243 107.112 396.809L109.709 394.211L112.306 396.809C113.741 398.243 113.741 400.569 112.306 402.004L109.709 404.601L107.112 402.004Z" fill="white"/>
<path d="M96.7317 402.004C95.2972 400.569 95.2972 398.243 96.7317 396.809L99.3291 394.211L101.927 396.809C103.361 398.243 103.361 400.569 101.927 402.004L99.3291 404.601L96.7317 402.004Z" fill="white"/>
<path d="M101.922 411.711C100.487 410.276 100.487 407.95 101.922 406.516L104.519 403.918L107.116 406.516C108.551 407.95 108.551 410.276 107.116 411.711L104.519 414.308L101.922 411.711Z" fill="white"/>
<path d="M112.302 392.488C110.867 391.054 110.867 388.728 112.302 387.293L114.899 384.696L117.496 387.293C118.931 388.728 118.931 391.054 117.496 392.488L114.899 395.085L112.302 392.488Z" fill="white"/>
<path d="M117.491 402.004C116.057 400.569 116.057 398.243 117.491 396.809L120.089 394.211L122.686 396.809C124.121 398.243 124.121 400.569 122.686 402.004L120.089 404.601L117.491 402.004Z" fill="white"/>
<path d="M112.302 411.711C110.867 410.276 110.867 407.95 112.302 406.516L114.899 403.918L117.496 406.516C118.931 407.95 118.931 410.276 117.496 411.711L114.899 414.308L112.302 411.711Z" fill="white"/>
<path d="M122.682 392.488C121.247 391.054 121.247 388.728 122.682 387.293L125.279 384.696L127.877 387.293C129.311 388.728 129.311 391.054 127.877 392.488L125.279 395.085L122.682 392.488Z" fill="white"/>
<path d="M127.872 402.004C126.437 400.569 126.437 398.243 127.872 396.809L130.469 394.211L133.067 396.809C134.501 398.243 134.501 400.569 133.067 402.004L130.469 404.601L127.872 402.004Z" fill="white"/>
<path d="M122.682 411.711C121.247 410.276 121.247 407.95 122.682 406.516L125.279 403.918L127.877 406.516C129.311 407.95 129.311 410.276 127.877 411.711L125.279 414.308L122.682 411.711Z" fill="white"/>
<path d="M133.062 392.488C131.627 391.054 131.627 388.728 133.062 387.293L135.659 384.696L138.257 387.293C139.691 388.728 139.691 391.054 138.257 392.488L135.659 395.085L133.062 392.488Z" fill="white"/>
<path d="M138.252 402.004C136.817 400.569 136.817 398.243 138.252 396.809L140.849 394.211L143.447 396.809C144.881 398.243 144.881 400.569 143.447 402.004L140.849 404.601L138.252 402.004Z" fill="white"/>
<path d="M133.062 411.711C131.627 410.276 131.627 407.95 133.062 406.516L135.659 403.918L138.257 406.516C139.691 407.95 139.691 410.276 138.257 411.711L135.659 414.308L133.062 411.711Z" fill="white"/>
<path d="M195.608 373.207C194.173 371.772 194.173 369.446 195.608 368.012L198.205 365.415L200.803 368.012C202.237 369.446 202.237 371.772 200.803 373.207L198.205 375.804L195.608 373.207Z" fill="white"/>
<path d="M200.798 382.722C199.363 381.288 199.363 378.962 200.798 377.528L203.395 374.93L205.992 377.528C207.427 378.962 207.427 381.288 205.992 382.722L203.395 385.32L200.798 382.722Z" fill="white"/>
<path d="M190.417 382.722C188.983 381.288 188.983 378.962 190.417 377.528L193.015 374.93L195.612 377.528C197.047 378.962 197.047 381.288 195.612 382.722L193.015 385.32L190.417 382.722Z" fill="white"/>
<path d="M195.608 392.429C194.173 390.995 194.173 388.669 195.608 387.235L198.205 384.637L200.803 387.235C202.237 388.669 202.237 390.995 200.803 392.429L198.205 395.027L195.608 392.429Z" fill="white"/>
<path d="M200.798 344.781C199.364 343.346 199.364 341.021 200.798 339.586L203.396 336.989L205.993 339.586C207.427 341.021 207.427 343.346 205.993 344.781L203.396 347.378L200.798 344.781Z" fill="white"/>
<path d="M195.608 354.297C194.174 352.862 194.174 350.536 195.608 349.102L198.206 346.504L200.803 349.102C202.238 350.536 202.238 352.862 200.803 354.297L198.206 356.894L195.608 354.297Z" fill="white"/>
<path d="M200.798 364.004C199.364 362.569 199.364 360.243 200.798 358.809L203.396 356.211L205.993 358.809C207.427 360.243 207.427 362.569 205.993 364.004L203.396 366.601L200.798 364.004Z" fill="white"/>
<path d="M107.36 363.57C105.926 362.136 105.926 359.81 107.36 358.375L109.958 355.778L112.555 358.375C113.989 359.81 113.989 362.136 112.555 363.57L109.958 366.167L107.36 363.57Z" fill="white"/>
<path d="M112.55 373.086C111.116 371.651 111.116 369.325 112.55 367.891L115.147 365.293L117.745 367.891C119.179 369.325 119.179 371.651 117.745 373.086L115.147 375.683L112.55 373.086Z" fill="white"/>
<path d="M102.17 373.086C100.736 371.651 100.736 369.325 102.17 367.891L104.768 365.293L107.365 367.891C108.8 369.325 108.8 371.651 107.365 373.086L104.768 375.683L102.17 373.086Z" fill="white"/>
<path d="M107.36 382.793C105.926 381.358 105.926 379.032 107.36 377.598L109.958 375L112.555 377.598C113.989 379.032 113.989 381.358 112.555 382.793L109.958 385.39L107.36 382.793Z" fill="white"/>
<path d="M117.74 363.57C116.306 362.136 116.306 359.81 117.74 358.375L120.338 355.778L122.935 358.375C124.37 359.81 124.37 362.136 122.935 363.57L120.338 366.167L117.74 363.57Z" fill="white"/>
<path d="M122.93 373.086C121.496 371.651 121.496 369.325 122.93 367.891L125.528 365.293L128.125 367.891C129.56 369.325 129.56 371.651 128.125 373.086L125.528 375.683L122.93 373.086Z" fill="white"/>
<path d="M117.74 382.793C116.306 381.358 116.306 379.032 117.74 377.598L120.338 375L122.935 377.598C124.37 379.032 124.37 381.358 122.935 382.793L120.338 385.39L117.74 382.793Z" fill="white"/>
<path d="M128.12 363.57C126.686 362.136 126.686 359.81 128.12 358.375L130.718 355.778L133.315 358.375C134.75 359.81 134.75 362.136 133.315 363.57L130.718 366.167L128.12 363.57Z" fill="white"/>
<path d="M133.31 373.086C131.876 371.651 131.876 369.325 133.31 367.891L135.908 365.293L138.505 367.891C139.94 369.325 139.94 371.651 138.505 373.086L135.908 375.683L133.31 373.086Z" fill="white"/>
<path d="M128.12 382.793C126.686 381.358 126.686 379.032 128.12 377.598L130.718 375L133.315 377.598C134.75 379.032 134.75 381.358 133.315 382.793L130.718 385.39L128.12 382.793Z" fill="white"/>
<path d="M138.501 363.57C137.066 362.136 137.066 359.81 138.501 358.375L141.098 355.778L143.696 358.375C145.13 359.81 145.13 362.136 143.696 363.57L141.098 366.167L138.501 363.57Z" fill="white"/>
<path d="M143.691 373.086C142.256 371.651 142.256 369.325 143.691 367.891L146.288 365.293L148.886 367.891C150.32 369.325 150.32 371.651 148.886 373.086L146.288 375.683L143.691 373.086Z" fill="white"/>
<path d="M138.501 382.793C137.066 381.358 137.066 379.032 138.501 377.598L141.098 375L143.696 377.598C145.13 379.032 145.13 381.358 143.696 382.793L141.098 385.39L138.501 382.793Z" fill="white"/>
<path d="M112.551 334.398C111.117 332.964 111.117 330.638 112.551 329.203L115.148 326.606L117.746 329.203C119.18 330.638 119.18 332.964 117.746 334.398L115.148 336.996L112.551 334.398Z" fill="white"/>
<path d="M117.741 343.914C116.306 342.479 116.306 340.154 117.741 338.719L120.338 336.122L122.936 338.719C124.37 340.154 124.37 342.479 122.936 343.914L120.338 346.511L117.741 343.914Z" fill="white"/>
<path d="M107.361 343.914C105.927 342.479 105.927 340.154 107.361 338.719L109.959 336.122L112.556 338.719C113.99 340.154 113.99 342.479 112.556 343.914L109.959 346.511L107.361 343.914Z" fill="white"/>
<path d="M112.551 353.621C111.117 352.186 111.117 349.861 112.551 348.426L115.148 345.829L117.746 348.426C119.18 349.861 119.18 352.186 117.746 353.621L115.148 356.218L112.551 353.621Z" fill="white"/>
<path d="M122.931 334.398C121.497 332.964 121.497 330.638 122.931 329.203L125.529 326.606L128.126 329.203C129.561 330.638 129.561 332.964 128.126 334.398L125.529 336.996L122.931 334.398Z" fill="white"/>
<path d="M128.121 343.914C126.687 342.479 126.687 340.154 128.121 338.719L130.719 336.122L133.316 338.719C134.751 340.154 134.751 342.479 133.316 343.914L130.719 346.511L128.121 343.914Z" fill="white"/>
<path d="M122.931 353.621C121.497 352.186 121.497 349.861 122.931 348.426L125.529 345.829L128.126 348.426C129.561 349.861 129.561 352.186 128.126 353.621L125.529 356.218L122.931 353.621Z" fill="white"/>
<path d="M133.311 334.398C131.877 332.964 131.877 330.638 133.311 329.203L135.909 326.606L138.506 329.203C139.941 330.638 139.941 332.964 138.506 334.398L135.909 336.996L133.311 334.398Z" fill="white"/>
<path d="M138.501 343.914C137.067 342.479 137.067 340.154 138.501 338.719L141.099 336.122L143.696 338.719C145.131 340.154 145.131 342.479 143.696 343.914L141.099 346.511L138.501 343.914Z" fill="white"/>
<path d="M133.311 353.621C131.877 352.186 131.877 349.861 133.311 348.426L135.909 345.829L138.506 348.426C139.941 349.861 139.941 352.186 138.506 353.621L135.909 356.218L133.311 353.621Z" fill="white"/>
<path d="M143.692 334.398C142.257 332.964 142.257 330.638 143.692 329.203L146.289 326.606L148.886 329.203C150.321 330.638 150.321 332.964 148.886 334.398L146.289 336.996L143.692 334.398Z" fill="white"/>
<path d="M148.882 343.914C147.447 342.479 147.447 340.154 148.882 338.719L151.479 336.122L154.076 338.719C155.511 340.154 155.511 342.479 154.076 343.914L151.479 346.511L148.882 343.914Z" fill="white"/>
<path d="M143.692 353.621C142.257 352.186 142.257 349.861 143.692 348.426L146.289 345.829L148.886 348.426C150.321 349.861 150.321 352.186 148.886 353.621L146.289 356.218L143.692 353.621Z" fill="white"/>
<path d="M159.27 324.511C157.836 323.077 157.836 320.751 159.27 319.317L161.868 316.719L164.465 319.317C165.9 320.751 165.9 323.077 164.465 324.511L161.868 327.109L159.27 324.511Z" fill="white"/>
<path d="M164.46 334.027C163.026 332.593 163.026 330.267 164.46 328.832L167.058 326.235L169.655 328.832C171.09 330.267 171.09 332.593 169.655 334.027L167.058 336.625L164.46 334.027Z" fill="white"/>
<path d="M154.08 334.027C152.646 332.593 152.646 330.267 154.08 328.832L156.678 326.235L159.275 328.832C160.71 330.267 160.71 332.593 159.275 334.027L156.678 336.625L154.08 334.027Z" fill="white"/>
<path d="M159.27 343.734C157.836 342.3 157.836 339.974 159.27 338.539L161.868 335.942L164.465 338.539C165.9 339.974 165.9 342.3 164.465 343.734L161.868 346.332L159.27 343.734Z" fill="white"/>
<path d="M169.651 324.511C168.216 323.077 168.216 320.751 169.651 319.317L172.248 316.719L174.845 319.317C176.28 320.751 176.28 323.077 174.845 324.511L172.248 327.109L169.651 324.511Z" fill="white"/>
<path d="M174.841 334.027C173.406 332.593 173.406 330.267 174.841 328.832L177.438 326.235L180.035 328.832C181.47 330.267 181.47 332.593 180.035 334.027L177.438 336.625L174.841 334.027Z" fill="white"/>
<path d="M169.651 343.734C168.216 342.3 168.216 339.974 169.651 338.539L172.248 335.942L174.845 338.539C176.28 339.974 176.28 342.3 174.845 343.734L172.248 346.332L169.651 343.734Z" fill="white"/>
<path d="M180.031 324.511C178.596 323.077 178.596 320.751 180.031 319.317L182.628 316.719L185.225 319.317C186.66 320.751 186.66 323.077 185.225 324.511L182.628 327.109L180.031 324.511Z" fill="white"/>
<path d="M185.22 334.027C183.786 332.593 183.786 330.267 185.22 328.832L187.818 326.235L190.415 328.832C191.85 330.267 191.85 332.593 190.415 334.027L187.818 336.625L185.22 334.027Z" fill="white"/>
<path d="M180.031 343.734C178.596 342.3 178.596 339.974 180.031 338.539L182.628 335.942L185.225 338.539C186.66 339.974 186.66 342.3 185.225 343.734L182.628 346.332L180.031 343.734Z" fill="white"/>
<path d="M190.411 324.511C188.976 323.077 188.976 320.751 190.411 319.317L193.008 316.719L195.606 319.317C197.04 320.751 197.04 323.077 195.606 324.511L193.008 327.109L190.411 324.511Z" fill="white"/>
<path d="M195.601 334.027C194.166 332.593 194.166 330.267 195.601 328.832L198.198 326.235L200.796 328.832C202.23 330.267 202.23 332.593 200.796 334.027L198.198 336.625L195.601 334.027Z" fill="white"/>
<path d="M190.411 343.734C188.976 342.3 188.976 339.974 190.411 338.539L193.008 335.942L195.606 338.539C197.04 339.974 197.04 342.3 195.606 343.734L193.008 346.332L190.411 343.734Z" fill="white"/>
<path d="M154.079 353.187C152.644 351.753 152.644 349.427 154.079 347.992L156.676 345.395L159.274 347.992C160.708 349.427 160.708 351.753 159.274 353.187L156.676 355.785L154.079 353.187Z" fill="white"/>
<path d="M159.269 362.703C157.834 361.268 157.834 358.943 159.269 357.508L161.866 354.911L164.464 357.508C165.898 358.943 165.898 361.268 164.464 362.703L161.866 365.3L159.269 362.703Z" fill="white"/>
<path d="M148.889 362.703C147.454 361.268 147.454 358.943 148.889 357.508L151.486 354.911L154.084 357.508C155.518 358.943 155.518 361.268 154.084 362.703L151.486 365.3L148.889 362.703Z" fill="white"/>
<path d="M154.079 372.41C152.644 370.975 152.644 368.65 154.079 367.215L156.676 364.618L159.274 367.215C160.708 368.65 160.708 370.975 159.274 372.41L156.676 375.007L154.079 372.41Z" fill="white"/>
<path d="M164.459 353.187C163.025 351.753 163.025 349.427 164.459 347.992L167.057 345.395L169.654 347.992C171.089 349.427 171.089 351.753 169.654 353.187L167.057 355.785L164.459 353.187Z" fill="white"/>
<path d="M169.649 362.703C168.215 361.268 168.215 358.943 169.649 357.508L172.247 354.911L174.844 357.508C176.279 358.943 176.279 361.268 174.844 362.703L172.247 365.3L169.649 362.703Z" fill="white"/>
<path d="M164.459 372.41C163.025 370.975 163.025 368.65 164.459 367.215L167.057 364.618L169.654 367.215C171.089 368.65 171.089 370.975 169.654 372.41L167.057 375.007L164.459 372.41Z" fill="white"/>
<path d="M174.839 353.187C173.405 351.753 173.405 349.427 174.839 347.992L177.437 345.395L180.034 347.992C181.468 349.427 181.468 351.753 180.034 353.187L177.437 355.785L174.839 353.187Z" fill="white"/>
<path d="M180.029 362.703C178.595 361.268 178.595 358.943 180.029 357.508L182.626 354.911L185.224 357.508C186.658 358.943 186.658 361.268 185.224 362.703L182.626 365.3L180.029 362.703Z" fill="white"/>
<path d="M174.839 372.41C173.405 370.975 173.405 368.65 174.839 367.215L177.437 364.618L180.034 367.215C181.468 368.65 181.468 370.975 180.034 372.41L177.437 375.007L174.839 372.41Z" fill="white"/>
<path d="M185.219 353.187C183.785 351.753 183.785 349.427 185.219 347.992L187.817 345.395L190.414 347.992C191.849 349.427 191.849 351.753 190.414 353.187L187.817 355.785L185.219 353.187Z" fill="white"/>
<path d="M190.409 362.703C188.975 361.268 188.975 358.943 190.409 357.508L193.007 354.911L195.604 357.508C197.039 358.943 197.039 361.268 195.604 362.703L193.007 365.3L190.409 362.703Z" fill="white"/>
<path d="M185.219 372.41C183.785 370.975 183.785 368.65 185.219 367.215L187.817 364.618L190.414 367.215C191.849 368.65 191.849 370.975 190.414 372.41L187.817 375.007L185.219 372.41Z" fill="white"/>
</g>
<path d="M156.517 242.511C151.269 237.262 151.269 228.753 156.517 223.505L166.02 214.002L175.523 223.505C180.771 228.753 180.771 237.262 175.523 242.511L166.02 252.014L156.517 242.511Z" fill="#FF8A9F"/>
</svg>
