<svg width="375" height="367" viewBox="0 0 375 367" fill="none" xmlns="http://www.w3.org/2000/svg">
<path d="M171.887 315.891C169.725 315.891 167.973 314.138 167.973 311.977C167.973 309.815 169.725 308.062 171.887 308.062C174.049 308.062 175.801 309.815 175.801 311.977C175.801 314.138 174.049 315.891 171.887 315.891ZM127.831 311.977L127.789 311.244L127.81 311.243H127.831V311.977ZM120.327 264.828C120.327 264.423 120.656 264.094 121.061 264.094C121.466 264.094 121.795 264.423 121.795 264.828H120.327ZM171.887 312.711H127.831V311.243H171.887V312.711ZM127.872 312.709C126.423 312.791 124.54 312.307 123.012 310.982C121.46 309.638 120.327 307.473 120.327 304.306H121.795C121.795 307.093 122.776 308.835 123.973 309.873C125.194 310.931 126.696 311.305 127.789 311.244L127.872 312.709ZM120.327 304.306V264.828H121.795V304.306H120.327Z" fill="#212322"/>
<path d="M171.549 352.438C169.387 352.438 167.635 350.685 167.635 348.523C167.635 346.362 169.387 344.609 171.549 344.609C173.711 344.609 175.463 346.362 175.463 348.523C175.463 350.685 173.711 352.438 171.549 352.438ZM-99.3709 348.523L-99.3776 347.789H-99.3709V348.523ZM-141.734 301.401C-141.734 300.995 -141.405 300.667 -141 300.667C-140.595 300.667 -140.266 300.995 -140.266 301.401H-141.734ZM171.549 349.257H-99.3709V347.789H171.549V349.257ZM-99.3641 349.257C-107.207 349.329 -117.653 348.899 -126.152 347.702C-130.395 347.105 -134.196 346.31 -136.953 345.273C-138.328 344.755 -139.492 344.16 -140.324 343.464C-141.158 342.766 -141.734 341.898 -141.734 340.857H-140.266C-140.266 341.304 -140.029 341.796 -139.382 342.338C-138.731 342.882 -137.742 343.407 -136.436 343.899C-133.831 344.879 -130.157 345.656 -125.947 346.249C-117.542 347.433 -107.173 347.861 -99.3776 347.79L-99.3641 349.257ZM-141.734 340.857V301.401H-140.266V340.857H-141.734Z" fill="#ABFE2C"/>
<path d="M319.142 238.34C321.304 238.34 323.056 236.588 323.056 234.426C323.056 232.264 321.304 230.511 319.142 230.511C316.98 230.511 315.227 232.264 315.227 234.426C315.227 236.588 316.98 238.34 319.142 238.34ZM353.276 -110.37C353.276 -110.776 352.948 -111.104 352.542 -111.104C352.137 -111.104 351.808 -110.776 351.808 -110.37H353.276ZM319.142 235.16H348.094V233.692H319.142V235.16ZM348.094 235.16C349.645 235.16 350.874 234.69 351.725 233.481C352.52 232.351 352.914 230.665 353.125 228.428C353.55 223.941 353.276 216.604 353.276 205.388H351.808C351.808 216.712 352.08 223.894 351.664 228.29C351.456 230.495 351.083 231.843 350.525 232.636C350.022 233.35 349.311 233.692 348.094 233.692V235.16ZM353.276 205.388V-110.37H351.808V205.388H353.276Z" fill="#A4A4A4"/>
<path d="M171.887 235.836C171.887 226.716 179.281 219.322 188.401 219.322H245.282V276.203C245.282 285.324 237.888 292.717 228.768 292.717H171.887V235.836Z" fill="#212322"/>
<path d="M245.282 309.235C245.282 300.115 252.676 292.721 261.796 292.721H318.677V349.602C318.677 358.723 311.284 366.116 302.163 366.116H245.282V309.235Z" fill="#A4A4A4"/>
<path d="M211.685 254.355L211.685 254.356L211.691 254.349L244.915 220.225V276.203C244.915 285.121 237.686 292.35 228.768 292.35H172.788L211.685 254.355Z" fill="#454545" stroke="#DBDBDB" stroke-width="0.733949"/>
<path d="M245.282 267.031C245.282 260.951 250.211 256.022 256.292 256.022H281.98V281.71C281.98 287.79 277.051 292.719 270.971 292.719H245.282V267.031Z" fill="#212322"/>
<path d="M281.978 230.331C281.978 224.251 286.907 219.322 292.988 219.322H318.676V245.01C318.676 251.091 313.747 256.02 307.666 256.02H281.978V230.331Z" fill="#A4A4A4"/>
<path d="M171.887 303.73C171.887 297.65 176.816 292.721 182.896 292.721H245.282V318.409C245.282 324.49 240.353 329.419 234.273 329.419H171.887V303.73Z" fill="#212322"/>
<circle cx="263.631" cy="237.671" r="18.3487" fill="#ABFE2C"/>
<circle cx="190.236" cy="347.764" r="18.3487" fill="#ABFE2C"/>
<circle cx="300.327" cy="274.37" r="17.6064" stroke="#212322" stroke-width="1.48458"/>
<circle cx="226.933" cy="348.092" r="17.6064" stroke="#212322" stroke-width="1.48458"/>
<path d="M77.3912 222.743C77.9612 234.134 82.9582 244.852 91.3159 252.61C99.6736 260.367 110.73 264.549 122.127 264.264C133.523 263.978 144.357 259.248 152.316 251.083C160.276 242.917 164.731 231.963 164.731 220.557C164.731 209.151 160.276 198.196 152.316 190.031C144.357 181.865 133.523 177.135 122.127 176.85C110.73 176.565 99.6736 180.747 91.3159 188.504C82.9582 196.261 77.9612 206.979 77.3912 218.371C77.9612 229.762 82.9582 240.48 91.3159 248.237C99.6736 255.995 110.73 260.177 122.127 259.891C133.523 259.606 144.357 254.876 152.316 246.711C160.276 238.545 164.731 227.591 164.731 216.185C164.731 204.779 160.276 193.824 152.316 185.658C144.357 177.493 133.523 172.763 122.127 172.478C110.73 172.192 99.6736 176.375 91.3159 184.132C82.9582 191.889 77.9612 202.607 77.3912 213.999C77.9612 225.39 82.9582 236.108 91.3159 243.865C99.6736 251.623 110.73 255.805 122.127 255.519C133.523 255.234 144.357 250.504 152.316 242.339C160.276 234.173 164.731 223.219 164.731 211.813C164.731 200.406 160.276 189.452 152.316 181.286C144.357 173.121 133.523 168.391 122.127 168.106C110.73 167.82 99.6736 172.003 91.3159 179.76C82.9582 187.517 77.9612 198.235 77.3912 209.626C77.9612 221.018 82.9582 231.736 91.3159 239.493C99.6736 247.25 110.73 251.433 122.127 251.147C133.523 250.862 144.357 246.132 152.316 237.967C160.276 229.801 164.731 218.847 164.731 207.44C164.731 196.034 160.276 185.08 152.316 176.914C144.357 168.749 133.523 164.019 122.127 163.734C110.73 163.448 99.6736 167.63 91.3159 175.388C82.9582 183.145 77.9612 193.863 77.3912 205.254C77.9612 216.646 82.9582 227.364 91.3159 235.121C99.6736 242.878 110.73 247.061 122.127 246.775C133.523 246.49 144.357 241.76 152.316 233.595C160.276 225.429 164.731 214.474 164.731 203.068C164.731 191.662 160.276 180.708 152.316 172.542C144.357 164.377 133.523 159.647 122.127 159.362C110.73 159.076 99.6736 163.258 91.3159 171.016C82.9582 178.773 77.9612 189.491 77.3912 200.882C77.9612 212.274 82.9582 222.992 91.3159 230.749C99.6736 238.506 110.73 242.688 122.127 242.403C133.523 242.118 144.357 237.388 152.316 229.222C160.276 221.057 164.731 210.102 164.731 198.696C164.731 187.29 160.276 176.336 152.316 168.17C144.357 160.005 133.523 155.275 122.127 154.989C110.73 154.704 99.6736 158.886 91.3159 166.643C82.9582 174.401 77.9612 185.119 77.3912 196.51C77.9612 207.902 82.9582 218.62 91.3159 226.377C99.6736 234.134 110.73 238.316 122.127 238.031C133.523 237.746 144.357 233.016 152.316 224.85C160.276 216.685 164.731 205.73 164.731 194.324C164.731 182.918 160.276 171.964 152.316 163.798C144.357 155.633 133.523 150.903 122.127 150.617C110.73 150.332 99.6736 154.514 91.3159 162.271C82.9582 170.029 77.9612 180.746 77.3912 192.138C77.9612 203.53 82.9582 214.248 91.3159 222.005C99.6736 229.762 110.73 233.944 122.127 233.659C133.523 233.374 144.357 228.644 152.316 220.478C160.276 212.313 164.731 201.358 164.731 189.952C164.731 178.546 160.276 167.592 152.316 159.426C144.357 151.261 133.523 146.531 122.127 146.245C110.73 145.96 99.6736 150.142 91.3159 157.899C82.9582 165.656 77.9612 176.374 77.3912 187.766C77.9612 199.158 82.9582 209.876 91.3159 217.633C99.6736 225.39 110.73 229.572 122.127 229.287C133.523 229.002 144.357 224.272 152.316 216.106C160.276 207.941 164.731 196.986 164.731 185.58C164.731 174.174 160.276 163.22 152.316 155.054C144.357 146.889 133.523 142.159 122.127 141.873C110.73 141.588 99.6736 145.77 91.3159 153.527C82.9582 161.284 77.9612 172.002 77.3912 183.394C77.9612 194.786 82.9582 205.504 91.3159 213.261C99.6736 221.018 110.73 225.2 122.127 224.915C133.523 224.63 144.357 219.9 152.316 211.734C160.276 203.569 164.731 192.614 164.731 181.208C164.731 169.802 160.276 158.848 152.316 150.682C144.357 142.516 133.523 137.786 122.127 137.501C110.73 137.216 99.6736 141.398 91.3159 149.155C82.9582 156.912 77.9612 167.63 77.3912 179.022" stroke="#212322" stroke-width="0.733949"/>
<path d="M351.213 329.855C351.213 324.345 355.68 319.879 361.189 319.879H371.165V329.855C371.165 335.364 366.698 339.83 361.189 339.83H351.213V329.855Z" fill="#A4A4A4"/>
<path d="M221.146 180.695C221.146 175.185 225.612 170.719 231.121 170.719H241.097V180.695C241.097 186.204 236.631 190.67 231.121 190.67H221.146V180.695Z" fill="#A4A4A4"/>
<path d="M342.938 315.235C339.042 311.339 339.042 305.023 342.938 301.127L349.992 294.073L357.046 301.127C360.942 305.023 360.942 311.339 357.046 315.235L349.992 322.289L342.938 315.235Z" fill="#A4A4A4"/>
<path d="M212.872 166.073C208.976 162.177 208.976 155.861 212.872 151.965L219.926 144.911L226.98 151.965C230.875 155.861 230.875 162.177 226.98 166.073L219.926 173.127L212.872 166.073Z" fill="#A4A4A4"/>
<path d="M347.891 354.168C347.891 350.673 347.234 342.221 335.944 342.221H323.997V354.168C323.997 360.766 329.346 366.115 335.944 366.115H347.891V354.168Z" fill="#A4A4A4"/>
<path d="M217.825 205.005C217.825 201.511 217.168 193.058 205.878 193.058H193.931V205.005C193.931 211.604 199.28 216.952 205.878 216.952H217.825V205.005Z" fill="#A4A4A4"/>
<path d="M351.297 354.168C351.297 350.673 351.955 342.221 363.244 342.221H375.191V354.168C375.191 360.766 369.843 366.115 363.244 366.115H351.297V354.168Z" fill="#A4A4A4"/>
<path d="M221.23 205.005C221.23 201.511 221.887 193.058 233.177 193.058H245.124V205.005C245.124 211.604 239.775 216.952 233.177 216.952H221.23V205.005Z" fill="#A4A4A4"/>
<path d="M348.37 329.855C348.37 324.345 343.904 319.879 338.394 319.879H328.418V329.855C328.418 335.364 332.885 339.83 338.394 339.83H348.37V329.855Z" fill="#A4A4A4"/>
<path d="M218.302 180.695C218.302 175.185 213.836 170.719 208.326 170.719H198.351V180.695C198.351 186.204 202.817 190.67 208.326 190.67H218.302V180.695Z" fill="#A4A4A4"/>
<mask id="mask0_312_461" style="mask-type:alpha" maskUnits="userSpaceOnUse" x="171" y="219" width="75" height="74">
<path d="M211.685 254.358L211.685 254.358L211.692 254.351L244.915 220.228V276.206C244.915 285.123 237.686 292.353 228.768 292.353H172.788L211.685 254.358Z" fill="#05278E" stroke="#FCFCFC" stroke-width="0.733949"/>
</mask>
<g mask="url(#mask0_312_461)">
<path d="M207.209 270.249C206.144 269.184 206.144 267.458 207.209 266.393L209.137 264.465L211.065 266.393C212.13 267.458 212.13 269.184 211.065 270.249L209.137 272.177L207.209 270.249Z" fill="white"/>
<path d="M211.061 277.31C209.996 276.246 209.996 274.519 211.061 273.454L212.989 271.526L214.917 273.454C215.982 274.519 215.982 276.246 214.917 277.31L212.989 279.239L211.061 277.31Z" fill="white"/>
<path d="M203.356 277.31C202.291 276.246 202.291 274.519 203.356 273.454L205.284 271.526L207.212 273.454C208.277 274.519 208.277 276.246 207.212 277.31L205.284 279.239L203.356 277.31Z" fill="white"/>
<path d="M207.209 284.517C206.144 283.452 206.144 281.726 207.209 280.661L209.137 278.733L211.065 280.661C212.13 281.726 212.13 283.452 211.065 284.517L209.137 286.445L207.209 284.517Z" fill="white"/>
<path d="M214.914 270.249C213.849 269.184 213.849 267.458 214.914 266.393L216.842 264.465L218.77 266.393C219.834 267.458 219.834 269.184 218.77 270.249L216.842 272.177L214.914 270.249Z" fill="white"/>
<path d="M218.766 277.31C217.702 276.246 217.702 274.519 218.766 273.454L220.694 271.526L222.622 273.454C223.687 274.519 223.687 276.246 222.622 277.31L220.694 279.239L218.766 277.31Z" fill="white"/>
<path d="M214.914 284.517C213.849 283.452 213.849 281.726 214.914 280.661L216.842 278.733L218.77 280.661C219.834 281.726 219.834 283.452 218.77 284.517L216.842 286.445L214.914 284.517Z" fill="white"/>
<path d="M222.619 270.249C221.554 269.184 221.554 267.458 222.619 266.393L224.547 264.465L226.475 266.393C227.54 267.458 227.54 269.184 226.475 270.249L224.547 272.177L222.619 270.249Z" fill="white"/>
<path d="M226.472 277.31C225.407 276.246 225.407 274.519 226.472 273.454L228.4 271.526L230.328 273.454C231.393 274.519 231.393 276.246 230.328 277.31L228.4 279.239L226.472 277.31Z" fill="white"/>
<path d="M222.619 284.517C221.554 283.452 221.554 281.726 222.619 280.661L224.547 278.733L226.475 280.661C227.54 281.726 227.54 283.452 226.475 284.517L224.547 286.445L222.619 284.517Z" fill="white"/>
<path d="M230.324 270.249C229.259 269.184 229.259 267.458 230.324 266.393L232.252 264.465L234.18 266.393C235.245 267.458 235.245 269.184 234.18 270.249L232.252 272.177L230.324 270.249Z" fill="white"/>
<path d="M234.177 277.31C233.112 276.246 233.112 274.519 234.177 273.454L236.105 271.526L238.033 273.454C239.097 274.519 239.097 276.246 238.033 277.31L236.105 279.239L234.177 277.31Z" fill="white"/>
<path d="M230.324 284.517C229.259 283.452 229.259 281.726 230.324 280.661L232.252 278.733L234.18 280.661C235.245 281.726 235.245 283.452 234.18 284.517L232.252 286.445L230.324 284.517Z" fill="white"/>
<path d="M238.034 284.56C236.969 283.495 236.969 281.769 238.034 280.704L239.962 278.776L241.89 280.704C242.955 281.769 242.955 283.495 241.89 284.56L239.962 286.488L238.034 284.56Z" fill="white"/>
<path d="M241.886 291.623C240.821 290.559 240.821 288.832 241.886 287.767L243.814 285.839L245.742 287.767C246.807 288.832 246.807 290.559 245.742 291.623L243.814 293.552L241.886 291.623Z" fill="white"/>
<path d="M234.181 291.623C233.116 290.559 233.116 288.832 234.181 287.767L236.109 285.839L238.037 287.767C239.102 288.832 239.102 290.559 238.037 291.623L236.109 293.552L234.181 291.623Z" fill="white"/>
<path d="M245.738 284.56C244.674 283.495 244.674 281.769 245.738 280.704L247.666 278.776L249.595 280.704C250.659 281.769 250.659 283.495 249.595 284.56L247.666 286.488L245.738 284.56Z" fill="white"/>
<path d="M203.357 292.269C202.292 291.204 202.292 289.478 203.357 288.413L205.285 286.485L207.213 288.413C208.278 289.478 208.278 291.204 207.213 292.269L205.285 294.197L203.357 292.269Z" fill="white"/>
<path d="M211.061 292.269C209.996 291.204 209.996 289.478 211.061 288.413L212.989 286.485L214.917 288.413C215.982 289.478 215.982 291.204 214.917 292.269L212.989 294.197L211.061 292.269Z" fill="white"/>
<path d="M218.767 292.269C217.702 291.204 217.702 289.478 218.767 288.413L220.695 286.485L222.623 288.413C223.688 289.478 223.688 291.204 222.623 292.269L220.695 294.197L218.767 292.269Z" fill="white"/>
<path d="M226.471 292.269C225.406 291.204 225.406 289.478 226.471 288.413L228.399 286.485L230.327 288.413C231.392 289.478 231.392 291.204 230.327 292.269L228.399 294.197L226.471 292.269Z" fill="white"/>
<path d="M172.346 277.404C171.281 276.34 171.281 274.613 172.346 273.548L174.274 271.62L176.202 273.548C177.267 274.613 177.267 276.34 176.202 277.404L174.274 279.332L172.346 277.404Z" fill="white"/>
<path d="M176.199 284.466C175.134 283.401 175.134 281.674 176.199 280.61L178.127 278.682L180.055 280.61C181.119 281.674 181.119 283.401 180.055 284.466L178.127 286.394L176.199 284.466Z" fill="white"/>
<path d="M168.494 284.466C167.429 283.401 167.429 281.674 168.494 280.61L170.422 278.682L172.35 280.61C173.415 281.674 173.415 283.401 172.35 284.466L170.422 286.394L168.494 284.466Z" fill="white"/>
<path d="M172.346 291.672C171.281 290.607 171.281 288.881 172.346 287.816L174.274 285.888L176.202 287.816C177.267 288.881 177.267 290.607 176.202 291.672L174.274 293.6L172.346 291.672Z" fill="white"/>
<path d="M180.051 277.404C178.987 276.34 178.987 274.613 180.051 273.548L181.979 271.62L183.907 273.548C184.972 274.613 184.972 276.34 183.907 277.404L181.979 279.332L180.051 277.404Z" fill="white"/>
<path d="M183.904 284.466C182.839 283.401 182.839 281.674 183.904 280.61L185.832 278.682L187.76 280.61C188.825 281.674 188.825 283.401 187.76 284.466L185.832 286.394L183.904 284.466Z" fill="white"/>
<path d="M180.051 291.672C178.987 290.607 178.987 288.881 180.051 287.816L181.979 285.888L183.907 287.816C184.972 288.881 184.972 290.607 183.907 291.672L181.979 293.6L180.051 291.672Z" fill="white"/>
<path d="M187.757 277.404C186.692 276.34 186.692 274.613 187.757 273.548L189.685 271.62L191.613 273.548C192.678 274.613 192.678 276.34 191.613 277.404L189.685 279.332L187.757 277.404Z" fill="white"/>
<path d="M191.609 284.466C190.544 283.401 190.544 281.674 191.609 280.61L193.537 278.682L195.465 280.61C196.53 281.674 196.53 283.401 195.465 284.466L193.537 286.394L191.609 284.466Z" fill="white"/>
<path d="M187.757 291.672C186.692 290.607 186.692 288.881 187.757 287.816L189.685 285.888L191.613 287.816C192.678 288.881 192.678 290.607 191.613 291.672L189.685 293.6L187.757 291.672Z" fill="white"/>
<path d="M195.462 277.404C194.397 276.34 194.397 274.613 195.462 273.548L197.39 271.62L199.318 273.548C200.382 274.613 200.382 276.34 199.318 277.404L197.39 279.332L195.462 277.404Z" fill="white"/>
<path d="M199.314 284.466C198.25 283.401 198.25 281.674 199.314 280.61L201.242 278.682L203.17 280.61C204.235 281.674 204.235 283.401 203.17 284.466L201.242 286.394L199.314 284.466Z" fill="white"/>
<path d="M195.462 291.672C194.397 290.607 194.397 288.881 195.462 287.816L197.39 285.888L199.318 287.816C200.382 288.881 200.382 290.607 199.318 291.672L197.39 293.6L195.462 291.672Z" fill="white"/>
<path d="M241.889 263.094C240.824 262.029 240.824 260.302 241.889 259.238L243.817 257.31L245.745 259.238C246.809 260.302 246.809 262.029 245.745 263.094L243.817 265.022L241.889 263.094Z" fill="white"/>
<path d="M245.74 270.155C244.675 269.09 244.675 267.364 245.74 266.299L247.668 264.371L249.596 266.299C250.661 267.364 250.661 269.09 249.596 270.155L247.668 272.083L245.74 270.155Z" fill="white"/>
<path d="M238.036 270.155C236.971 269.09 236.971 267.364 238.036 266.299L239.964 264.371L241.892 266.299C242.957 267.364 242.957 269.09 241.892 270.155L239.964 272.083L238.036 270.155Z" fill="white"/>
<path d="M241.889 277.362C240.824 276.297 240.824 274.57 241.889 273.506L243.817 271.578L245.745 273.506C246.809 274.57 246.809 276.297 245.745 277.362L243.817 279.29L241.889 277.362Z" fill="white"/>
<path d="M245.742 241.992C244.677 240.927 244.677 239.201 245.742 238.136L247.67 236.208L249.598 238.136C250.663 239.201 250.663 240.927 249.598 241.992L247.67 243.92L245.742 241.992Z" fill="white"/>
<path d="M241.889 249.053C240.824 247.988 240.824 246.262 241.889 245.197L243.817 243.269L245.745 245.197C246.81 246.262 246.81 247.988 245.745 249.053L243.817 250.981L241.889 249.053Z" fill="white"/>
<path d="M245.742 256.26C244.677 255.195 244.677 253.469 245.742 252.404L247.67 250.476L249.598 252.404C250.663 253.469 250.663 255.195 249.598 256.26L247.67 258.188L245.742 256.26Z" fill="white"/>
<path d="M176.384 255.936C175.319 254.872 175.319 253.145 176.384 252.08L178.312 250.152L180.24 252.08C181.305 253.145 181.305 254.872 180.24 255.936L178.312 257.864L176.384 255.936Z" fill="white"/>
<path d="M180.235 262.998C179.171 261.933 179.171 260.206 180.235 259.142L182.163 257.214L184.091 259.142C185.156 260.206 185.156 261.933 184.091 262.998L182.163 264.926L180.235 262.998Z" fill="white"/>
<path d="M172.531 262.998C171.466 261.933 171.466 260.206 172.531 259.142L174.459 257.214L176.387 259.142C177.452 260.206 177.452 261.933 176.387 262.998L174.459 264.926L172.531 262.998Z" fill="white"/>
<path d="M176.384 270.204C175.319 269.139 175.319 267.413 176.384 266.348L178.312 264.42L180.24 266.348C181.305 267.413 181.305 269.139 180.24 270.204L178.312 272.132L176.384 270.204Z" fill="white"/>
<path d="M184.088 255.936C183.023 254.872 183.023 253.145 184.088 252.08L186.016 250.152L187.944 252.08C189.009 253.145 189.009 254.872 187.944 255.936L186.016 257.864L184.088 255.936Z" fill="white"/>
<path d="M187.941 262.998C186.876 261.933 186.876 260.206 187.941 259.142L189.869 257.214L191.797 259.142C192.862 260.206 192.862 261.933 191.797 262.998L189.869 264.926L187.941 262.998Z" fill="white"/>
<path d="M184.088 270.204C183.023 269.139 183.023 267.413 184.088 266.348L186.016 264.42L187.944 266.348C189.009 267.413 189.009 269.139 187.944 270.204L186.016 272.132L184.088 270.204Z" fill="white"/>
<path d="M191.794 255.936C190.729 254.872 190.729 253.145 191.794 252.08L193.722 250.152L195.65 252.08C196.715 253.145 196.715 254.872 195.65 255.936L193.722 257.864L191.794 255.936Z" fill="white"/>
<path d="M195.647 262.998C194.582 261.933 194.582 260.206 195.647 259.142L197.575 257.214L199.503 259.142C200.568 260.206 200.568 261.933 199.503 262.998L197.575 264.926L195.647 262.998Z" fill="white"/>
<path d="M191.794 270.204C190.729 269.139 190.729 267.413 191.794 266.348L193.722 264.42L195.65 266.348C196.715 267.413 196.715 269.139 195.65 270.204L193.722 272.132L191.794 270.204Z" fill="white"/>
<path d="M199.498 255.936C198.434 254.872 198.434 253.145 199.498 252.08L201.426 250.152L203.354 252.08C204.419 253.145 204.419 254.872 203.354 255.936L201.426 257.864L199.498 255.936Z" fill="white"/>
<path d="M203.351 262.998C202.286 261.933 202.286 260.206 203.351 259.142L205.279 257.214L207.207 259.142C208.272 260.206 208.272 261.933 207.207 262.998L205.279 264.926L203.351 262.998Z" fill="white"/>
<path d="M199.498 270.204C198.434 269.139 198.434 267.413 199.498 266.348L201.426 264.42L203.354 266.348C204.419 267.413 204.419 269.139 203.354 270.204L201.426 272.132L199.498 270.204Z" fill="white"/>
<path d="M180.237 234.286C179.172 233.221 179.172 231.494 180.237 230.43L182.165 228.502L184.093 230.43C185.158 231.494 185.158 233.221 184.093 234.286L182.165 236.214L180.237 234.286Z" fill="white"/>
<path d="M184.088 241.347C183.024 240.282 183.024 238.556 184.088 237.491L186.017 235.563L187.945 237.491C189.009 238.556 189.009 240.282 187.945 241.347L186.017 243.275L184.088 241.347Z" fill="white"/>
<path d="M176.384 241.347C175.319 240.282 175.319 238.556 176.384 237.491L178.312 235.563L180.24 237.491C181.305 238.556 181.305 240.282 180.24 241.347L178.312 243.275L176.384 241.347Z" fill="white"/>
<path d="M180.237 248.554C179.172 247.489 179.172 245.762 180.237 244.698L182.165 242.77L184.093 244.698C185.158 245.762 185.158 247.489 184.093 248.554L182.165 250.482L180.237 248.554Z" fill="white"/>
<path d="M187.941 234.286C186.877 233.221 186.877 231.494 187.941 230.43L189.869 228.502L191.797 230.43C192.862 231.494 192.862 233.221 191.797 234.286L189.869 236.214L187.941 234.286Z" fill="white"/>
<path d="M191.794 241.347C190.729 240.282 190.729 238.556 191.794 237.491L193.722 235.563L195.65 237.491C196.715 238.556 196.715 240.282 195.65 241.347L193.722 243.275L191.794 241.347Z" fill="white"/>
<path d="M187.941 248.554C186.877 247.489 186.877 245.762 187.941 244.698L189.869 242.77L191.797 244.698C192.862 245.762 192.862 247.489 191.797 248.554L189.869 250.482L187.941 248.554Z" fill="white"/>
<path d="M195.647 234.286C194.582 233.221 194.582 231.494 195.647 230.43L197.575 228.502L199.503 230.43C200.568 231.494 200.568 233.221 199.503 234.286L197.575 236.214L195.647 234.286Z" fill="white"/>
<path d="M199.5 241.347C198.435 240.282 198.435 238.556 199.5 237.491L201.428 235.563L203.356 237.491C204.421 238.556 204.421 240.282 203.356 241.347L201.428 243.275L199.5 241.347Z" fill="white"/>
<path d="M195.647 248.554C194.582 247.489 194.582 245.762 195.647 244.698L197.575 242.77L199.503 244.698C200.568 245.762 200.568 247.489 199.503 248.554L197.575 250.482L195.647 248.554Z" fill="white"/>
<path d="M203.351 234.286C202.287 233.221 202.287 231.494 203.351 230.43L205.28 228.502L207.208 230.43C208.272 231.494 208.272 233.221 207.208 234.286L205.28 236.214L203.351 234.286Z" fill="white"/>
<path d="M207.204 241.347C206.14 240.282 206.14 238.556 207.204 237.491L209.132 235.563L211.06 237.491C212.125 238.556 212.125 240.282 211.06 241.347L209.132 243.275L207.204 241.347Z" fill="white"/>
<path d="M203.351 248.554C202.287 247.489 202.287 245.762 203.351 244.698L205.28 242.77L207.208 244.698C208.272 245.762 208.272 247.489 207.208 248.554L205.28 250.482L203.351 248.554Z" fill="white"/>
<path d="M214.915 226.946C213.85 225.881 213.85 224.154 214.915 223.09L216.843 221.162L218.771 223.09C219.836 224.154 219.836 225.881 218.771 226.946L216.843 228.874L214.915 226.946Z" fill="white"/>
<path d="M218.767 234.007C217.702 232.942 217.702 231.216 218.767 230.151L220.695 228.223L222.623 230.151C223.688 231.216 223.688 232.942 222.623 234.007L220.695 235.935L218.767 234.007Z" fill="white"/>
<path d="M211.062 234.007C209.997 232.942 209.997 231.216 211.062 230.151L212.99 228.223L214.918 230.151C215.983 231.216 215.983 232.942 214.918 234.007L212.99 235.935L211.062 234.007Z" fill="white"/>
<path d="M214.915 241.214C213.85 240.149 213.85 238.422 214.915 237.358L216.843 235.43L218.771 237.358C219.836 238.422 219.836 240.149 218.771 241.214L216.843 243.142L214.915 241.214Z" fill="white"/>
<path d="M222.62 226.946C221.555 225.881 221.555 224.154 222.62 223.09L224.548 221.162L226.476 223.09C227.541 224.154 227.541 225.881 226.476 226.946L224.548 228.874L222.62 226.946Z" fill="white"/>
<path d="M226.472 234.007C225.408 232.942 225.408 231.216 226.472 230.151L228.401 228.223L230.329 230.151C231.393 231.216 231.393 232.942 230.329 234.007L228.401 235.935L226.472 234.007Z" fill="white"/>
<path d="M222.62 241.214C221.555 240.149 221.555 238.422 222.62 237.358L224.548 235.43L226.476 237.358C227.541 238.422 227.541 240.149 226.476 241.214L224.548 243.142L222.62 241.214Z" fill="white"/>
<path d="M230.325 226.946C229.26 225.881 229.26 224.154 230.325 223.09L232.253 221.162L234.181 223.09C235.246 224.154 235.246 225.881 234.181 226.946L232.253 228.874L230.325 226.946Z" fill="white"/>
<path d="M234.178 234.007C233.113 232.942 233.113 231.216 234.178 230.151L236.106 228.223L238.034 230.151C239.099 231.216 239.099 232.942 238.034 234.007L236.106 235.935L234.178 234.007Z" fill="white"/>
<path d="M230.325 241.214C229.26 240.149 229.26 238.422 230.325 237.358L232.253 235.43L234.181 237.358C235.246 238.422 235.246 240.149 234.181 241.214L232.253 243.142L230.325 241.214Z" fill="white"/>
<path d="M238.03 226.946C236.965 225.881 236.965 224.154 238.03 223.09L239.958 221.162L241.886 223.09C242.951 224.154 242.951 225.881 241.886 226.946L239.958 228.874L238.03 226.946Z" fill="white"/>
<path d="M241.883 234.007C240.818 232.942 240.818 231.216 241.883 230.151L243.811 228.223L245.739 230.151C246.804 231.216 246.804 232.942 245.739 234.007L243.811 235.935L241.883 234.007Z" fill="white"/>
<path d="M238.03 241.214C236.965 240.149 236.965 238.422 238.03 237.358L239.958 235.43L241.886 237.358C242.951 238.422 242.951 240.149 241.886 241.214L239.958 243.142L238.03 241.214Z" fill="white"/>
<path d="M211.062 248.232C209.997 247.167 209.997 245.441 211.062 244.376L212.99 242.448L214.918 244.376C215.983 245.441 215.983 247.167 214.918 248.232L212.99 250.16L211.062 248.232Z" fill="white"/>
<path d="M214.914 255.296C213.849 254.231 213.849 252.504 214.914 251.44L216.842 249.512L218.77 251.44C219.835 252.504 219.835 254.231 218.77 255.296L216.842 257.224L214.914 255.296Z" fill="white"/>
<path d="M207.209 255.296C206.144 254.231 206.144 252.504 207.209 251.44L209.137 249.512L211.065 251.44C212.13 252.504 212.13 254.231 211.065 255.296L209.137 257.224L207.209 255.296Z" fill="white"/>
<path d="M211.062 262.5C209.997 261.435 209.997 259.709 211.062 258.644L212.99 256.716L214.918 258.644C215.983 259.709 215.983 261.435 214.918 262.5L212.99 264.428L211.062 262.5Z" fill="white"/>
<path d="M218.766 248.232C217.702 247.167 217.702 245.441 218.766 244.376L220.695 242.448L222.623 244.376C223.687 245.441 223.687 247.167 222.623 248.232L220.695 250.16L218.766 248.232Z" fill="white"/>
<path d="M222.619 255.296C221.554 254.231 221.554 252.504 222.619 251.44L224.547 249.512L226.475 251.44C227.54 252.504 227.54 254.231 226.475 255.296L224.547 257.224L222.619 255.296Z" fill="white"/>
<path d="M218.766 262.5C217.702 261.435 217.702 259.709 218.766 258.644L220.695 256.716L222.623 258.644C223.687 259.709 223.687 261.435 222.623 262.5L220.695 264.428L218.766 262.5Z" fill="white"/>
<path d="M226.472 248.232C225.407 247.167 225.407 245.441 226.472 244.376L228.4 242.448L230.328 244.376C231.393 245.441 231.393 247.167 230.328 248.232L228.4 250.16L226.472 248.232Z" fill="white"/>
<path d="M230.325 255.296C229.26 254.231 229.26 252.504 230.325 251.44L232.253 249.512L234.181 251.44C235.246 252.504 235.246 254.231 234.181 255.296L232.253 257.224L230.325 255.296Z" fill="white"/>
<path d="M226.472 262.5C225.407 261.435 225.407 259.709 226.472 258.644L228.4 256.716L230.328 258.644C231.393 259.709 231.393 261.435 230.328 262.5L228.4 264.428L226.472 262.5Z" fill="white"/>
<path d="M234.177 248.232C233.112 247.167 233.112 245.441 234.177 244.376L236.105 242.448L238.033 244.376C239.098 245.441 239.098 247.167 238.033 248.232L236.105 250.16L234.177 248.232Z" fill="white"/>
<path d="M238.029 255.296C236.965 254.231 236.965 252.504 238.029 251.44L239.958 249.512L241.886 251.44C242.95 252.504 242.95 254.231 241.886 255.296L239.958 257.224L238.029 255.296Z" fill="white"/>
<path d="M234.177 262.5C233.112 261.435 233.112 259.709 234.177 258.644L236.105 256.716L238.033 258.644C239.098 259.709 239.098 261.435 238.033 262.5L236.105 264.428L234.177 262.5Z" fill="white"/>
</g>
</svg>
