<svg width="216" height="167" viewBox="0 0 216 167" fill="none" xmlns="http://www.w3.org/2000/svg">
<path d="M80.8402 105.282C79.5842 105.282 49.7739 105.021 26.9782 82.1615C26.4955 81.6776 26.0255 81.1936 25.5642 80.701C20.7923 75.6469 18.5238 69.642 19.0066 63.333C19.4295 57.7692 21.9842 52.3725 26.205 48.1408C30.4258 43.9091 35.8043 41.3478 41.3579 40.9237C47.1722 40.4783 52.7301 42.3886 57.5191 46.4575C58.036 40.187 60.6206 34.8974 65.0422 31.0897C69.2672 27.4533 74.8807 25.4531 80.8445 25.4531C86.8082 25.4531 92.426 27.4533 96.6468 31.0897C101.073 34.8974 103.653 40.187 104.174 46.4575C108.963 42.3886 114.521 40.4783 120.335 40.9237C125.885 41.3478 131.267 43.9091 135.484 48.1408C139.705 52.3725 142.259 57.7649 142.682 63.333C143.161 69.642 140.892 75.6469 136.125 80.701C135.663 81.1893 135.189 81.6776 134.711 82.1615C111.907 105.021 82.1004 105.282 80.8402 105.282ZM42.9984 45.6137C37.8292 45.6137 32.9762 48.0209 29.5244 51.4816C23.3171 57.705 20.5018 68.4899 28.9775 77.4715C29.409 77.9298 29.849 78.3838 30.3019 78.8379C51.739 100.331 80.554 100.579 80.8445 100.579C81.1307 100.579 110.001 100.275 131.387 78.8379C131.84 78.3838 132.28 77.9298 132.711 77.4715C141.187 68.4941 138.368 57.705 132.16 51.4859C125.953 45.2625 115.196 42.44 106.242 50.9334C105.785 51.366 105.332 51.8071 104.879 52.2611C104.529 52.6123 104.195 52.9678 103.862 53.3233L99.3852 58.0562L99.5603 51.5544C99.5731 51.0619 99.5902 50.565 99.5902 50.0639C99.5902 49.4257 99.5817 48.7918 99.5646 48.1579C99.2228 35.8011 89.6235 30.1688 80.8487 30.1688C72.074 30.1688 62.4704 35.7968 62.1329 48.1579C62.1158 48.7875 62.1073 49.4214 62.1073 50.0639C62.1073 50.5522 62.1201 51.0362 62.1329 51.5159L62.3038 58.0562L57.8438 53.3362C57.5063 52.9764 57.1645 52.6166 56.8142 52.2611C56.3614 51.8071 55.9085 51.366 55.4514 50.9334C51.4656 47.1514 47.1295 45.6137 42.9984 45.6137Z" fill="#FFBFBC"/>
<path d="M141.896 139.967C133.493 143.839 123.894 144.849 114.811 142.802C106.002 140.815 98.2785 136.215 92.3446 129.46C92.9256 129.863 93.5237 130.253 94.1388 130.625C99.214 133.692 104.853 135.234 110.492 135.234C115.503 135.234 120.519 134.017 125.141 131.567C125.47 131.396 125.795 131.216 126.119 131.032L123.795 126.937C123.513 127.1 123.231 127.254 122.945 127.404C114.593 131.829 104.734 131.529 96.5654 126.595C88.205 121.545 83.2109 112.709 83.2109 102.961V101.145H83.1682H78.5117H78.469V102.961C78.469 112.709 73.4749 121.545 65.1145 126.595C56.9464 131.529 47.0865 131.833 38.7346 127.404C38.4484 127.254 38.1665 127.1 37.8845 126.937L35.5605 131.032C35.8852 131.216 36.2099 131.396 36.5388 131.567C41.1612 134.017 46.1723 135.234 51.1877 135.234C56.8268 135.234 62.4616 133.692 67.5411 130.625C68.1562 130.257 68.7543 129.867 69.3353 129.46C63.4014 136.215 55.6776 140.815 46.8686 142.802C37.7862 144.854 28.187 143.843 19.7838 139.967L17.4214 144.07C23.7013 147.034 30.5964 148.55 37.5214 148.55C40.9988 148.55 44.4805 148.169 47.8982 147.398C58.4331 145.021 67.5795 139.281 74.3379 130.809C75.9185 128.831 77.2941 126.706 78.4647 124.483V148.55H83.1639V124.402C84.3473 126.655 85.7357 128.809 87.3335 130.809C94.0961 139.281 103.238 145.016 113.773 147.398C117.191 148.169 120.673 148.55 124.15 148.55C131.075 148.55 137.97 147.034 144.25 144.07L141.896 139.967Z" fill="#FFBFBC"/>
<path d="M77.7853 80.3268H74.3677C74.3677 75.2256 69.4164 71.071 63.3287 71.071C57.241 71.071 52.2897 75.2214 52.2897 80.3268H48.8721C48.8721 73.3368 55.357 67.6445 63.3287 67.6445C71.3003 67.6445 77.7853 73.3325 77.7853 80.3268Z" fill="#FFBFBC"/>
<path d="M67.2589 80.3988C69.9746 80.3988 72.1761 78.1916 72.1761 75.4689C72.1761 72.7462 69.9746 70.5391 67.2589 70.5391C64.5433 70.5391 62.3418 72.7462 62.3418 75.4689C62.3418 78.1916 64.5433 80.3988 67.2589 80.3988Z" fill="#FFBFBC"/>
<path d="M112.842 80.3268H109.424C109.424 75.2256 104.473 71.071 98.3853 71.071C92.2977 71.071 87.3463 75.2214 87.3463 80.3268H83.9287C83.9287 73.3368 90.4137 67.6445 98.3853 67.6445C106.357 67.6445 112.842 73.3325 112.842 80.3268Z" fill="#FFBFBC"/>
<path d="M102.32 80.3988C105.036 80.3988 107.237 78.1916 107.237 75.4689C107.237 72.7462 105.036 70.5391 102.32 70.5391C99.6043 70.5391 97.4028 72.7462 97.4028 75.4689C97.4028 78.1916 99.6043 80.3988 102.32 80.3988Z" fill="#FFBFBC"/>
<path d="M80.7846 92.9219C76.7561 92.9219 73.0223 90.8446 71.2793 87.6365L74.2825 85.9961C75.4403 88.1205 77.9907 89.4954 80.7889 89.4954C83.5871 89.4954 86.1417 88.1205 87.2952 85.9961L90.2985 87.6365C88.5469 90.8446 84.8131 92.9219 80.7846 92.9219Z" fill="#FFBFBC"/>
<path d="M185.667 6.52851C185.792 5.55072 187.208 5.55071 187.333 6.5285L188.737 17.5363C188.786 17.9157 189.084 18.2145 189.464 18.2629L200.471 19.6672C201.449 19.7919 201.449 21.2081 200.471 21.3328L189.464 22.7371C189.084 22.7855 188.786 23.0843 188.737 23.4637L187.333 34.4715C187.208 35.4493 185.792 35.4493 185.667 34.4715L184.263 23.4637C184.214 23.0843 183.916 22.7855 183.536 22.7371L172.529 21.3328C171.551 21.2081 171.551 19.7919 172.529 19.6672L183.536 18.2629C183.916 18.2145 184.214 17.9157 184.263 17.5363L185.667 6.52851Z" fill="#FFBFBC"/>
<path d="M201.952 32.2993C202.034 31.6553 202.966 31.6553 203.048 32.2993L203.973 39.5483C204.005 39.7982 204.202 39.9949 204.452 40.0268L211.701 40.9515C212.345 41.0337 212.345 41.9663 211.701 42.0485L204.452 42.9732C204.202 43.0051 204.005 43.2018 203.973 43.4517L203.048 50.7007C202.966 51.3447 202.034 51.3447 201.952 50.7007L201.027 43.4517C200.995 43.2018 200.798 43.0051 200.548 42.9732L193.299 42.0485C192.655 41.9663 192.655 41.0337 193.299 40.9515L200.548 40.0268C200.798 39.9949 200.995 39.7982 201.027 39.5483L201.952 32.2993Z" fill="#FFBFBC"/>
</svg>
