<svg width="127" height="124" viewBox="0 0 127 124" fill="none" xmlns="http://www.w3.org/2000/svg">
<path d="M63.4188 79.8287C62.1628 79.8287 32.3525 79.5674 9.55682 56.7084C9.07408 56.2244 8.60416 55.7404 8.14277 55.2479C3.3709 50.1938 1.10244 44.1889 1.58518 37.8799C2.00811 32.3161 4.5628 26.9194 8.78358 22.6877C13.0044 18.4559 18.3829 15.8946 23.9365 15.4706C29.7508 15.0252 35.3087 16.9354 40.0977 21.0044C40.6146 14.7339 43.1992 9.44427 47.6208 5.63658C51.8458 2.00021 57.4593 0 63.4231 0C69.3869 0 75.0046 2.00021 79.2254 5.63658C83.6512 9.44427 86.2315 14.7339 86.7527 21.0044C91.5417 16.9354 97.0996 15.0252 102.914 15.4706C108.463 15.8946 113.846 18.4559 118.063 22.6877C122.283 26.9194 124.838 32.3118 125.261 37.8799C125.739 44.1889 123.471 50.1938 118.703 55.2479C118.242 55.7362 117.768 56.2244 117.289 56.7084C94.4851 79.5674 64.6791 79.8287 63.4188 79.8287ZM25.577 20.1606C20.4078 20.1606 15.5548 22.5677 12.103 26.0285C5.89568 32.2518 3.0804 43.0367 11.5561 52.0184C11.9876 52.4767 12.4276 52.9307 12.8805 53.3847C34.3176 74.8774 63.1326 75.1258 63.4231 75.1258C63.7093 75.1258 92.5798 74.8217 113.966 53.3847C114.419 52.9307 114.859 52.4767 115.29 52.0184C123.766 43.041 120.946 32.2518 114.739 26.0328C108.532 19.8094 97.7746 16.9868 88.8204 25.4802C88.3633 25.9128 87.9105 26.354 87.4576 26.808C87.1073 27.1592 86.7741 27.5147 86.4409 27.8702L81.9638 32.6031L82.1389 26.1013C82.1517 25.6087 82.1688 25.1119 82.1688 24.6108C82.1688 23.9726 82.1603 23.3387 82.1432 22.7048C81.8014 10.348 72.2021 4.71571 63.4274 4.71571C54.6526 4.71571 45.049 10.3437 44.7115 22.7048C44.6944 23.3344 44.6859 23.9683 44.6859 24.6108C44.6859 25.099 44.6987 25.583 44.7115 26.0627L44.8824 32.6031L40.4224 27.8831C40.0849 27.5233 39.7431 27.1635 39.3928 26.808C38.94 26.354 38.4871 25.9128 38.03 25.4802C34.0442 21.6983 29.7081 20.1606 25.577 20.1606Z" fill="#FFBFBC"/>
<path d="M124.475 114.514C116.072 118.385 106.472 119.396 97.3899 117.349C88.5809 115.362 80.8571 110.762 74.9232 104.007C75.5042 104.41 76.1023 104.799 76.7174 105.172C81.7926 108.239 87.4318 109.781 93.0709 109.781C98.082 109.781 103.097 108.564 107.72 106.114C108.049 105.943 108.373 105.763 108.698 105.579L106.374 101.484C106.092 101.647 105.81 101.801 105.524 101.951C97.172 106.376 87.3121 106.076 79.144 101.142C70.7836 96.0919 65.7895 87.2558 65.7895 77.5074V75.6914H65.7468H61.0903H61.0476V77.5074C61.0476 87.2558 56.0535 96.0919 47.6931 101.142C39.525 106.076 29.6651 106.38 21.3132 101.951C21.027 101.801 20.7451 101.647 20.4631 101.484L18.1391 105.579C18.4638 105.763 18.7885 105.943 19.1174 106.114C23.7398 108.564 28.7509 109.781 33.7663 109.781C39.4054 109.781 45.0402 108.239 50.1197 105.172C50.7348 104.804 51.3329 104.414 51.9139 104.007C45.9801 110.762 38.2562 115.362 29.4472 117.349C20.3649 119.401 10.7656 118.39 2.36244 114.514L0 118.617C6.27991 121.581 13.175 123.097 20.1 123.097C23.5774 123.097 27.0592 122.716 30.4768 121.945C41.0117 119.568 50.1581 113.828 56.9165 105.356C58.4972 103.377 59.8728 101.253 61.0433 99.0301V123.097H65.7426V98.9487C66.9259 101.202 68.3143 103.356 69.9121 105.356C76.6747 113.828 85.8169 119.563 96.3518 121.945C99.7694 122.716 103.251 123.097 106.729 123.097C113.654 123.097 120.549 121.581 126.829 118.617L124.475 114.514Z" fill="#FFBFBC"/>
<path d="M60.3639 54.8776H56.9463C56.9463 49.7764 51.995 45.6218 45.9073 45.6218C39.8196 45.6218 34.8683 49.7721 34.8683 54.8776H31.4507C31.4507 47.8876 37.9357 42.1953 45.9073 42.1953C53.8789 42.1953 60.3639 47.8833 60.3639 54.8776Z" fill="#FFBFBC"/>
<path d="M49.8375 54.9457C52.5532 54.9457 54.7547 52.7385 54.7547 50.0158C54.7547 47.2931 52.5532 45.0859 49.8375 45.0859C47.1219 45.0859 44.9204 47.2931 44.9204 50.0158C44.9204 52.7385 47.1219 54.9457 49.8375 54.9457Z" fill="#FFBFBC"/>
<path d="M95.4206 54.8776H92.0029C92.0029 49.7764 87.0516 45.6218 80.9639 45.6218C74.8763 45.6218 69.925 49.7721 69.925 54.8776H66.5073C66.5073 47.8876 72.9923 42.1953 80.9639 42.1953C88.9356 42.1953 95.4206 47.8833 95.4206 54.8776Z" fill="#FFBFBC"/>
<path d="M84.8986 54.9457C87.6142 54.9457 89.8157 52.7385 89.8157 50.0158C89.8157 47.2931 87.6142 45.0859 84.8986 45.0859C82.1829 45.0859 79.9814 47.2931 79.9814 50.0158C79.9814 52.7385 82.1829 54.9457 84.8986 54.9457Z" fill="#FFBFBC"/>
<path d="M63.3716 60.5469C67.4002 60.5469 71.134 62.6242 72.877 65.8322L69.8737 67.4727C68.716 65.3482 66.1656 63.9734 63.3674 63.9734C60.5692 63.9734 58.0145 65.3482 56.861 67.4727L53.8578 65.8322C55.6093 62.6242 59.3431 60.5469 63.3716 60.5469Z" fill="#FFBFBC"/>
</svg>
